<svg version="1" xmlns="http://www.w3.org/2000/svg" width="2730.667" height="2730.667" viewBox="0 0 2048.000000 2048.000000"><path d="M463.5 1.7c-10.7.7-40.7 4.6-53.5 6.9-104.4 19-203.1 73-274.8 150.4-43.1 46.6-76.9 99.7-99.1 155.9C17 363.3 6.4 408.6 2 460.5.6 477.1.6 1570.9 2 1587.5c12.3 145 83.9 274.5 199.5 360.8 70.5 52.7 149.4 84.2 240 95.9l18 2.3h1129l18-2.3c37.6-4.9 68.8-12 101.7-23.1 126.3-43 229.2-133.4 288.4-253.5 27.3-55.4 44-116.1 49.4-180.1 1.4-16.6 1.4-1110.4 0-1127-3.4-39.7-10.6-76.6-22.1-112.3-48.6-151.3-165.3-270.2-315.3-321.1-32.4-11-60.7-17.6-97.7-22.8l-19.4-2.7-561.5-.1c-308.8-.1-563.7 0-566.5.2zm190 232.4c113.1 9.3 213.5 56.4 292 137 31.4 32.2 54.4 63.4 80.7 109.4 3.1 5.4 3.8 6 7 6.3 2.1.2 4.1-.2 4.8-1 .6-.7 5.1-8.3 10-17 21.6-38.2 44.5-68.9 74-99.2 74.9-76.9 166.9-121.5 275-133.3 21.6-2.3 68.7-2.3 90 0 81.5 9 152 33.9 215.5 76.3 26.5 17.6 46.8 34.6 68.2 56.8 59 61.4 100.4 143.6 121.2 240.2 11.8 55.1 17 111.1 15.8 169.4-.7 30.9-1.7 45.1-4.7 69-20.4 162.7-119.2 325.8-317 524-151.3 151.5-325.3 285-520.5 399.2-26.1 15.3-25.7 15.1-33.4 14.6-6.2-.4-8.8-1.5-46.2-19.9-21.7-10.8-48.3-24.2-59-29.9-219.9-116.6-405.4-262.6-552-434.5C234.8 1137.4 156.5 977.4 143 828c-3-33.1-3.7-73.5-2-107 7.1-135.5 45.4-245.9 114.2-328.7 12.9-15.6 40.3-42.6 55.3-54.6 95.3-76.2 219.7-113.8 343-103.6z"/><path d="M1403 379.6c-2.5.2-10.6.8-18 1.5-107.7 8.8-193.8 60.2-257.2 153.3-18.4 27.1-38.7 64.8-53.2 99.1-3.7 8.8-7.7 17.1-8.9 18.4-4.4 4.8-6.7 5.1-36.2 5.1-29.5 0-31.8-.3-36.1-5.1-1.2-1.3-5.7-10.3-9.9-19.9-63.5-144.2-142.7-216.3-264-240.5-101.7-20.2-198.7-3.4-275.7 47.8-20.3 13.5-29 20.8-47.8 39.6-36.8 36.9-61.9 78.9-80.6 134.6-16.2 48.7-24.4 98.4-26 158.5-2 75.3 10 141.4 38.8 213.9l6.2 15.4 16.5-.6c30.4-1.2 43.1-4.1 54-12.3 11.5-8.7 18.2-20.2 25.5-44.4 7.1-23.3 17.5-48.6 32.2-78 31.6-63.2 58.6-99.7 83.4-112.6 7.5-3.9 18.1-4.1 25.5-.5 21.5 10.6 42.6 53.8 58.9 121.1 8.4 34.4 12.7 61.7 20.6 130 6 51.9 9.3 78.1 12.1 95 5.5 33.5 11.4 51.6 19.7 60.2 6.5 6.8 13.5 6.1 22.7-2.4 7.5-6.8 15.6-19.4 32.1-49.8 7.6-14 14.1-25.7 14.4-26 1-.8 14.3-25.8 17.7-33.2 6.7-14.3 19.3-28.4 32.3-36.1 14.7-8.6 27.9-10.6 68.8-10.7H893v-25.9c0-14.6.4-27.1 1-28.6 1.1-3 4.5-4.5 8.2-3.8 3.8.7 113.4 90 117.2 95.5 3.7 5.3 1.7 9.5-10.1 20.8-18.6 18.1-102.2 91-107.2 93.6-3.7 1.9-6.8 1.7-9.1-.6-1.9-1.9-2-3.3-2-35.6v-33.6l-26.2.4c-23.9.4-26.9.6-33.1 2.7-8.9 2.9-21 11.2-26.9 18.5-4.8 6-23.2 40.5-54.1 101.6-9.3 18.4-19 37-21.5 41.3-10.2 17.2-23.1 30.6-34.9 36.3-7.7 3.7-18.4 4-25.6.7-17.6-8.1-35.4-40.9-51.1-94.4-15.7-53.7-23.6-100.2-33.6-197.9-8.7-84.8-15.6-117.3-27.2-128.2-5-4.7-8.2-3.9-15.3 3.5-9.7 10.2-17.4 24.9-40.5 76.7-32.8 73.8-44 94.4-59.3 108.7-15.4 14.3-29.6 20.5-55.1 23.8-6.6.8-12.1 1.7-12.3 1.8-.4.5 21.5 35.2 32.1 50.7 121.5 178.2 328.1 346.7 591.1 482.3 32.2 16.6 33.1 16.8 43.1 11.2 29.7-16.7 87.8-52.9 132.4-82.6 95.2-63.5 174.7-125.1 253-196.3 24.2-21.9 87.9-86 108.5-109.1 37-41.6 70.8-84.1 96.6-121.7l5.9-8.6-6.3 1.4c-12.8 2.9-25.9 9.1-37.2 17.7-37.4 28.4-61.2 47.1-67.2 52.8-9.9 9.3-15.6 12.1-26 12.7-7.5.4-8.7.2-14.5-2.5-8.2-3.9-15.1-10.3-24.3-22.4-13.4-17.8-27-42.9-40.5-74.9-13.8-32.6-27.2-52.3-36.9-54.5-6.1-1.3-14.7 6.9-28.1 27-17.8 26.7-24.9 34.7-34.8 39.3-5.4 2.6-6.4 2.7-19.6 2.5-7.7-.2-14-.4-14.1-.5-.1-.2-.5-20.4-.9-45.1l-.6-44.7h5.2c11.8-.1 18.4-6.3 28.9-27.2 3.9-7.9 11.9-22.4 17.7-32.3 8.7-14.7 12.2-19.5 18.7-26.1 17.1-17.3 29.9-17.8 46-1.6 7.9 7.8 14.4 17.4 31.7 46.2 22.3 37.2 32.5 56.1 45.8 85.2 7.6 16.6 13.9 26 20.1 30.4 3.6 2.4 5.2 2.9 10.4 2.9 5.6 0 6.8-.4 11.8-3.8 3.1-2.1 7.5-6.3 9.8-9.3 13.9-18 48.5-45.1 71.9-56.3 18.2-8.7 40-12.3 61-10.2 6.3.7 14.8 1.5 18.8 1.8l7.2.6 8.4-17.4c27-56 44.2-115.9 50.1-174.4 3.4-34.2 3-83.7-1.1-120.5-3.5-31.8-11.7-71.3-20.4-98.5-41.1-128-134.8-205.6-266.5-221-12.6-1.5-49.4-2.7-58.5-1.9z"/></svg>